<svg class="svg-icon" style="width: 1em;height: 1em;vertical-align: middle;fill: currentColor;overflow: hidden;" viewBox="0 0 1024 1024" version="1.1" xmlns="http://www.w3.org/2000/svg">
<path d="M419.84 680.96a30.72 30.72 0 0 1 1.152 61.41952L419.84 742.4H174.08a30.72 30.72 0 0 1-1.152-61.41952L174.08 680.96h245.76z" fill="#ffffff" />
<path d="M296.96 558.08a30.72 30.72 0 0 1 30.69952 29.568L327.68 588.8v245.76a30.72 30.72 0 0 1-61.41952 1.152L266.24 834.56v-245.76a30.72 30.72 0 0 1 30.72-30.72zM419.84 
    250.88a30.72 30.72 0 0 1 1.152 61.41952L419.84 312.32H174.08a30.72 30.72 0 0 1-1.152-61.41952L174.08 250.88h245.76zM849.92 619.776a30.72 30.72 0 0 1 1.152 61.41952l-1.152 
    0.02048h-245.76a30.72 30.72 0 0 1-1.152-61.41952l1.152-0.02048h245.76zM849.92 742.144a30.72 30.72 0 0 1 1.152 61.41952l-1.152 0.02048h-245.76a30.72 30.72 0 0 
    1-1.152-61.41952l1.152-0.02048h245.76zM797.47584 167.71584a30.72 30.72 0 0 1 44.34432 42.51136l-0.896 0.93696-184.32 184.32a30.72 30.72 0 0 1-44.34432-42.51136l0.896-0.93696 184.32-184.32z" 
    fill="#ffffff" />
<path d="M613.15584 167.71584a30.72 30.72 0 0 1 42.51136-0.896l0.93696 0.896 184.32 184.32a30.72 30.72 0 0 1-42.51136 44.34432l-0.93696-0.896-184.32-184.32a30.72 30.72 0 0 1 0-43.44832z" fill="#ffffff" /></svg>